<?xml version="1.0" encoding="utf-8"?>
<!-- Generator: Adobe Illustrator 27.0.0, SVG Export Plug-In . SVG Version: 6.00 Build 0)  -->
<svg version="1.1"
	 id="Layer_1" text-rendering="geometricPrecision" image-rendering="optimizeQuality" shape-rendering="geometricPrecision"
	 xmlns="http://www.w3.org/2000/svg" xmlns:xlink="http://www.w3.org/1999/xlink" x="0px" y="0px" viewBox="0 0 512 389.9"
	 style="enable-background:new 0 0 512 389.9;" xml:space="preserve">
<style type="text/css">
	.st0{fill-rule:evenodd;clip-rule:evenodd;fill:#1470B8;}
	.st1{fill:#BBDEFB;}
	.st2{fill:#1470B8;}
	.st3{fill-rule:evenodd;clip-rule:evenodd;fill:#FFFFFF;}
	.st4{display:none;fill:#1F3647;}
	.st5{font-family:'GothamVnu-Bold';}
	.st6{font-size:110px;}
	.st7{fill:none;stroke:#000000;stroke-width:4;stroke-miterlimit:10;}
</style>
<path class="st0" d="M256,0c107.7,0,195,87.3,195,195s-87.3,195-195,195S61,302.7,61,195S148.3,0,256,0z"/>
<path class="st1" d="M246.2,88.7V34c-10.5,9.2-20.1,18.4-28.8,27.6c-8.6,9.1-16.4,18.1-23.4,27.1H246.2L246.2,88.7z M395.2,301.5
	H345c-17.2,24.8-38.9,46.8-61.9,66.4l2-0.3C328.2,360.6,368.9,336.3,395.2,301.5z M229,367.9c-22.9-19.6-44.6-41.6-61.8-66.4H117
	c26.5,34.9,66.9,59,110.1,66.1L229,367.9z M116.8,88.7H170c8-11.5,17.3-23,27.8-34.5c9.8-10.7,20.6-21.5,32.6-32.2l-2.8,0.4
	C184.4,29.1,143.3,53.7,116.8,88.7z M281.8,22.1C304,42,325,64.1,342,88.7h53.2C367.6,52.5,326.6,28.9,281.8,22.1z M265.8,34v54.7
	h52.1c-6.9-9-14.7-18-23.4-27.1C285.8,52.5,276.2,43.3,265.8,34z M265.8,301.5V357c20-16.6,39-35,55-55.5H265.8z M246.2,357v-55.5
	h-55C207.2,322.1,226.2,340.5,246.2,357z"/>
<path class="st2" d="M40.2,90.4h431.6c22.1,0,40.2,18.1,40.2,40.2v129c0,22-18.2,40.2-40.2,40.2H40.2C18.1,299.9,0,281.8,0,259.6
	v-129C0,108.5,18.1,90.4,40.2,90.4z"/>
<path class="st3" d="M40.2,108.3h431.6c12.3,0,22.3,10.1,22.3,22.3v129c0,12.2-10.1,22.3-22.3,22.3H40.2c-12.2,0-22.3-10-22.3-22.3
	v-129C17.9,118.4,28,108.3,40.2,108.3z"/>
<path class="st4" d="M456.3,241.9h-74.8V218h26.6v-39.7l-26.6,1.8v-23.9l34.4-7.8h23.6V218h16.8V241.9z M147.1,148.5h31.2
	l-14.6,93.3h-39l-6.9-34.3H116l-6.7,34.3h-39l-14.6-93.3h31.2l7,52.1h0.9l10.8-52.1h22.8l10.6,52.1h0.9L147.1,148.5L147.1,148.5z
	 M246.6,206.6h-29.9v12.9h36.6v22.3h-66.4v-93.3h65.7l-3.7,22.3h-32.1v14.1h29.9L246.6,206.6L246.6,206.6z M267.1,241.8v-93.3h48.4
	c9,0,15.4,1.8,19.2,5.2s5.8,8.6,5.8,15.2s-1.2,11.8-3.7,15.4c-2.4,3.6-5.7,6-9.8,7.1v0.9c12,2.1,18.1,10.3,18.1,24.6
	c0,7.5-2,13.5-6,18s-10.1,6.8-18.4,6.8L267.1,241.8L267.1,241.8z M308.6,204.6h-13.2v15.2h13.1c4.2,0,6.3-2.5,6.3-7.6
	C314.7,207.1,312.7,204.6,308.6,204.6L308.6,204.6z M306.3,168.9h-11v13.9h10.8c3.8,0,5.7-2.3,5.7-6.9S310,168.9,306.3,168.9
	L306.3,168.9z"/>
<g>
	<text transform="matrix(1 0 0 1 49.6798 235.55)" class="st2 st5 st6">TĐTT 6</text>
	<text transform="matrix(1 0 0 1 49.6798 235.55)" class="st7 st5 st6">TĐTT 6</text>
</g>
</svg>
