<svg xmlns="http://www.w3.org/2000/svg" xmlns:xlink="http://www.w3.org/1999/xlink" viewBox="0 0 854 620"><defs><style>.cls-1,.cls-106{fill:none;}.cls-2{fill:#7f7f7f;}.cls-3{clip-path:url(#clip-path);}.cls-4{fill:#cd1627;}.cls-5{fill:#cf1828;}.cls-6{fill:#d11b28;}.cls-7{fill:#d31d29;}.cls-8{fill:#d41f2a;}.cls-9{fill:#d6212a;}.cls-10{fill:#d7232b;}.cls-11{fill:#d9252c;}.cls-12{fill:#da272c;}.cls-13{fill:#dc292d;}.cls-14{fill:#dd2b2d;}.cls-15{fill:#de2c2e;}.cls-16{fill:#e02e2e;}.cls-17{fill:#e12f2f;}.cls-18{fill:#e2312f;}.cls-19{fill:#e33230;}.cls-20{fill:#e43330;}.cls-21{fill:#e53430;}.cls-22{fill:#e63631;}.cls-23{fill:#e73731;}.cls-24{fill:#e73831;}.cls-25{fill:#e83932;}.cls-26{fill:#e93932;}.cls-27{fill:#e93a32;}.cls-28{fill:#ea3b32;}.cls-29{fill:#eb3c33;}.cls-30{fill:#ec3d33;}.cls-31{fill:#ec3e33;}.cls-32{fill:#ed3e33;}.cls-33{fill:#ed3f34;}.cls-34{fill:#ee3f34;}.cls-35{fill:#ee4034;}.cls-36{clip-path:url(#clip-path-2);}.cls-37{clip-path:url(#clip-path-3);}.cls-38{fill:#0a446d;}.cls-39{fill:#0a456e;}.cls-40{fill:#0a4670;}.cls-41{fill:#0a4671;}.cls-42{fill:#0a4773;}.cls-43{fill:#0a4874;}.cls-44{fill:#0a4976;}.cls-45{fill:#094977;}.cls-46{fill:#094a78;}.cls-47{fill:#094b7a;}.cls-48{fill:#094c7b;}.cls-49{fill:#094c7d;}.cls-50{fill:#094d7e;}.cls-51{fill:#094e7f;}.cls-52{fill:#094f81;}.cls-53{fill:#094f82;}.cls-54{fill:#095083;}.cls-55{fill:#095185;}.cls-56{fill:#095186;}.cls-57{fill:#095287;}.cls-58{fill:#085388;}.cls-59{fill:#08538a;}.cls-60{fill:#08548b;}.cls-61{fill:#08558c;}.cls-62{fill:#08558d;}.cls-63{fill:#08568f;}.cls-64{fill:#085790;}.cls-65{fill:#085791;}.cls-66{fill:#085892;}.cls-67{fill:#085993;}.cls-68{fill:#085994;}.cls-69{fill:#085a96;}.cls-70{fill:#085a97;}.cls-71{fill:#085b98;}.cls-72{fill:#085c99;}.cls-73{fill:#075c9a;}.cls-74{fill:#075d9b;}.cls-75{fill:#075d9c;}.cls-76{fill:#075e9d;}.cls-77{fill:#075e9e;}.cls-78{fill:#075f9f;}.cls-79{fill:#075fa0;}.cls-80{fill:#0760a1;}.cls-81{fill:#0760a2;}.cls-82{fill:#0761a3;}.cls-83{fill:#0761a4;}.cls-84{fill:#0762a5;}.cls-85{fill:#0762a6;}.cls-86{fill:#0763a7;}.cls-87{fill:#0763a8;}.cls-88{fill:#0764a8;}.cls-89{fill:#0764a9;}.cls-90{fill:#0765aa;}.cls-91{fill:#0765ab;}.cls-92{fill:#0666ac;}.cls-93{fill:#0666ad;}.cls-94{fill:#0667ae;}.cls-95{fill:#0667af;}.cls-96{fill:#0668b0;}.cls-97{fill:#0668b1;}.cls-98{fill:#0669b1;}.cls-99{fill:#0669b2;}.cls-100{fill:#0669b3;}.cls-101{fill:#066ab3;}.cls-102{fill:#066ab4;}.cls-103{clip-path:url(#clip-path-4);}.cls-104{clip-path:url(#clip-path-5);}.cls-105{fill:#fff;}.cls-106{stroke:#fff;stroke-miterlimit:10;stroke-width:10px;}</style><clipPath id="clip-path"><path class="cls-1" d="M238.36,252.82l35.26,63.32a3.71,3.71,0,0,0,6.52,0l16.93-30.39a2.48,2.48,0,0,0,0-2.39l-21.23-38.11a3.85,3.85,0,0,1,3.25-5.76h67.66c4.24.67-89.17,160.2-88.4,161.61a6,6,0,0,1-10.59,0c.77-1.44-92.65-160.91-88.41-161.61H216A25.7,25.7,0,0,1,238.36,252.82Z"/></clipPath><clipPath id="clip-path-2"><path class="cls-1" d="M570.06,253.54l35.26,63.32a3.71,3.71,0,0,0,6.52,0l16.93-30.39a2.48,2.48,0,0,0,0-2.39L607.54,246a3.85,3.85,0,0,1,3.25-5.76h67.66c4.25.68-89.17,160.21-88.4,161.62a6,6,0,0,1-10.59,0L490.24,241.64a1,1,0,0,1,.82-1.44h56.6A25.71,25.71,0,0,1,570.06,253.54Z"/></clipPath><clipPath id="clip-path-3"><path class="cls-1" d="M491.62,309.15,463,325.93a3.91,3.91,0,0,0,0-6.69l-91.12-53.42a9.65,9.65,0,0,0-12.14,1.93c37.94-47.53,120.9-29,136.39,29.59A10.19,10.19,0,0,1,491.62,309.15Z"/></clipPath><clipPath id="clip-path-4"><path class="cls-1" d="M401.38,362.05,373,378.7a6.34,6.34,0,0,0-.58,10.48C335,363.69,328.28,301,359.74,267.75a9.65,9.65,0,0,1,12.14-1.93l29.5,17.3a3.75,3.75,0,0,0-5.62,3.34v72.25A3.76,3.76,0,0,0,401.38,362.05Z"/></clipPath><clipPath id="clip-path-5"><path class="cls-1" d="M500,322.58C502,388,423,429.17,372.39,389.18A6.34,6.34,0,0,1,373,378.7l118.65-69.55a10.19,10.19,0,0,0,4.53-11.76A84.4,84.4,0,0,1,500,322.58Z"/></clipPath></defs><g id="Layer_4" data-name="Layer 4"><rect class="cls-2" x="-730" y="-816" width="1962" height="1728"/></g><g id="Layer_2" data-name="Layer 2"><g class="cls-3"><rect class="cls-4" x="155.11" y="239.49" width="4.83" height="165.82"/><rect class="cls-4" x="159.94" y="239.49" width="4.38" height="165.82"/><rect class="cls-5" x="164.32" y="239.49" width="4.38" height="165.82"/><rect class="cls-6" x="168.7" y="239.49" width="4.38" height="165.82"/><rect class="cls-7" x="173.08" y="239.49" width="4.38" height="165.82"/><rect class="cls-8" x="177.46" y="239.49" width="4.38" height="165.82"/><rect class="cls-9" x="181.84" y="239.49" width="4.38" height="165.82"/><rect class="cls-10" x="186.22" y="239.49" width="4.38" height="165.82"/><rect class="cls-11" x="190.6" y="239.49" width="4.38" height="165.82"/><rect class="cls-12" x="194.98" y="239.49" width="4.38" height="165.82"/><rect class="cls-13" x="199.37" y="239.49" width="4.38" height="165.82"/><rect class="cls-14" x="203.75" y="239.49" width="4.38" height="165.82"/><rect class="cls-15" x="208.13" y="239.49" width="4.38" height="165.82"/><rect class="cls-16" x="212.51" y="239.49" width="4.38" height="165.82"/><rect class="cls-17" x="216.89" y="239.49" width="4.38" height="165.82"/><rect class="cls-18" x="221.27" y="239.49" width="4.38" height="165.82"/><rect class="cls-19" x="225.65" y="239.49" width="4.38" height="165.82"/><rect class="cls-20" x="230.03" y="239.49" width="4.38" height="165.82"/><rect class="cls-21" x="234.41" y="239.49" width="4.38" height="165.82"/><rect class="cls-22" x="238.79" y="239.49" width="4.38" height="165.82"/><rect class="cls-23" x="243.17" y="239.49" width="4.38" height="165.82"/><rect class="cls-24" x="247.55" y="239.49" width="4.38" height="165.82"/><rect class="cls-25" x="251.93" y="239.49" width="4.38" height="165.82"/><rect class="cls-26" x="256.31" y="239.49" width="4.38" height="165.82"/><rect class="cls-27" x="260.69" y="239.49" width="4.38" height="165.82"/><rect class="cls-28" x="265.07" y="239.49" width="4.38" height="165.82"/><rect class="cls-29" x="269.45" y="239.49" width="4.38" height="165.82"/><rect class="cls-29" x="273.83" y="239.49" width="4.38" height="165.82"/><rect class="cls-30" x="278.21" y="239.49" width="4.38" height="165.82"/><rect class="cls-30" x="282.59" y="239.49" width="4.38" height="165.82"/><rect class="cls-31" x="286.97" y="239.49" width="4.38" height="165.82"/><rect class="cls-32" x="291.35" y="239.49" width="4.38" height="165.82"/><rect class="cls-33" x="295.73" y="239.49" width="4.38" height="165.82"/><rect class="cls-33" x="300.11" y="239.49" width="4.38" height="165.82"/><rect class="cls-33" x="304.49" y="239.49" width="4.38" height="165.82"/><rect class="cls-34" x="308.88" y="239.49" width="4.38" height="165.82"/><rect class="cls-35" x="313.26" y="239.49" width="4.38" height="165.82"/><rect class="cls-35" x="317.64" y="239.49" width="4.38" height="165.82"/><rect class="cls-35" x="322.02" y="239.49" width="4.38" height="165.82"/><rect class="cls-35" x="326.4" y="239.49" width="4.38" height="165.82"/><rect class="cls-35" x="330.78" y="239.49" width="4.38" height="165.82"/><rect class="cls-35" x="335.16" y="239.49" width="4.38" height="165.82"/><rect class="cls-35" x="339.54" y="239.49" width="4.38" height="165.82"/><rect class="cls-35" x="343.92" y="239.49" width="7.08" height="165.82"/></g><g class="cls-36"><rect class="cls-4" x="489.88" y="240.2" width="0.23" height="165.82"/><rect class="cls-4" x="490.12" y="240.2" width="4.47" height="165.82"/><rect class="cls-5" x="494.58" y="240.2" width="4.47" height="165.82"/><rect class="cls-6" x="499.05" y="240.2" width="4.47" height="165.82"/><rect class="cls-7" x="503.51" y="240.2" width="4.47" height="165.82"/><rect class="cls-8" x="507.98" y="240.2" width="4.47" height="165.82"/><rect class="cls-9" x="512.44" y="240.2" width="4.47" height="165.82"/><rect class="cls-10" x="516.91" y="240.2" width="4.47" height="165.82"/><rect class="cls-11" x="521.37" y="240.2" width="4.47" height="165.82"/><rect class="cls-12" x="525.84" y="240.2" width="4.47" height="165.82"/><rect class="cls-13" x="530.3" y="240.2" width="4.47" height="165.82"/><rect class="cls-14" x="534.77" y="240.2" width="4.47" height="165.82"/><rect class="cls-15" x="539.23" y="240.2" width="4.47" height="165.82"/><rect class="cls-16" x="543.7" y="240.2" width="4.47" height="165.82"/><rect class="cls-17" x="548.16" y="240.2" width="4.47" height="165.82"/><rect class="cls-18" x="552.63" y="240.2" width="4.47" height="165.82"/><rect class="cls-19" x="557.09" y="240.2" width="4.47" height="165.82"/><rect class="cls-20" x="561.56" y="240.2" width="4.47" height="165.82"/><rect class="cls-21" x="566.02" y="240.2" width="4.47" height="165.82"/><rect class="cls-22" x="570.49" y="240.2" width="4.47" height="165.82"/><rect class="cls-23" x="574.95" y="240.2" width="4.47" height="165.82"/><rect class="cls-24" x="579.42" y="240.2" width="4.47" height="165.82"/><rect class="cls-25" x="583.88" y="240.2" width="4.47" height="165.82"/><rect class="cls-26" x="588.35" y="240.2" width="4.47" height="165.82"/><rect class="cls-27" x="592.81" y="240.2" width="4.47" height="165.82"/><rect class="cls-28" x="597.28" y="240.2" width="4.47" height="165.82"/><rect class="cls-29" x="601.74" y="240.2" width="4.47" height="165.82"/><rect class="cls-29" x="606.21" y="240.2" width="4.47" height="165.82"/><rect class="cls-30" x="610.67" y="240.2" width="4.47" height="165.82"/><rect class="cls-30" x="615.14" y="240.2" width="4.47" height="165.82"/><rect class="cls-31" x="619.6" y="240.2" width="4.47" height="165.82"/><rect class="cls-32" x="624.07" y="240.2" width="4.47" height="165.82"/><rect class="cls-33" x="628.53" y="240.2" width="4.47" height="165.82"/><rect class="cls-33" x="633" y="240.2" width="4.47" height="165.82"/><rect class="cls-33" x="637.46" y="240.2" width="4.47" height="165.82"/><rect class="cls-34" x="641.93" y="240.2" width="4.47" height="165.82"/><rect class="cls-35" x="646.39" y="240.2" width="4.47" height="165.82"/><rect class="cls-35" x="650.86" y="240.2" width="4.47" height="165.82"/><rect class="cls-35" x="655.32" y="240.2" width="4.47" height="165.82"/><rect class="cls-35" x="659.79" y="240.2" width="4.47" height="165.82"/><rect class="cls-35" x="664.25" y="240.2" width="4.47" height="165.82"/><rect class="cls-35" x="668.72" y="240.2" width="4.47" height="165.82"/><rect class="cls-35" x="673.18" y="240.2" width="4.47" height="165.82"/><rect class="cls-35" x="677.65" y="240.2" width="5.05" height="165.82"/></g><g class="cls-37"><polygon class="cls-38" points="390.35 220.22 360.31 271.44 359.74 271.11 359.74 220.22 390.35 220.22"/><polygon class="cls-38" points="392.31 220.22 361.77 272.3 360.31 271.44 390.35 220.22 392.31 220.22"/><polygon class="cls-39" points="394.26 220.22 363.23 273.15 361.77 272.3 392.31 220.22 394.26 220.22"/><polygon class="cls-40" points="396.22 220.22 364.69 274.01 363.23 273.15 394.26 220.22 396.22 220.22"/><polygon class="cls-41" points="398.18 220.22 366.15 274.86 364.69 274.01 396.22 220.22 398.18 220.22"/><polygon class="cls-42" points="400.14 220.22 367.6 275.72 366.15 274.86 398.18 220.22 400.14 220.22"/><polygon class="cls-43" points="402.1 220.22 369.06 276.57 367.6 275.72 400.14 220.22 402.1 220.22"/><polygon class="cls-44" points="404.06 220.22 370.52 277.43 369.06 276.57 402.1 220.22 404.06 220.22"/><polygon class="cls-45" points="406.02 220.22 371.98 278.28 370.52 277.43 404.06 220.22 406.02 220.22"/><polygon class="cls-46" points="407.98 220.22 373.43 279.13 371.98 278.28 406.02 220.22 407.98 220.22"/><polygon class="cls-47" points="409.93 220.22 374.89 279.99 373.43 279.13 407.98 220.22 409.93 220.22"/><polygon class="cls-48" points="411.89 220.22 376.35 280.84 374.89 279.99 409.93 220.22 411.89 220.22"/><polygon class="cls-49" points="413.85 220.22 377.81 281.7 376.35 280.84 411.89 220.22 413.85 220.22"/><polygon class="cls-50" points="415.81 220.22 379.26 282.55 377.81 281.7 413.85 220.22 415.81 220.22"/><polygon class="cls-51" points="417.77 220.22 380.72 283.41 379.26 282.55 415.81 220.22 417.77 220.22"/><polygon class="cls-52" points="419.73 220.22 382.18 284.26 380.72 283.41 417.77 220.22 419.73 220.22"/><polygon class="cls-53" points="421.69 220.22 383.64 285.12 382.18 284.26 419.73 220.22 421.69 220.22"/><polygon class="cls-54" points="423.64 220.22 385.1 285.97 383.64 285.12 421.69 220.22 423.64 220.22"/><polygon class="cls-55" points="425.6 220.22 386.55 286.83 385.1 285.97 423.64 220.22 425.6 220.22"/><polygon class="cls-56" points="427.56 220.22 388.01 287.68 386.55 286.83 425.6 220.22 427.56 220.22"/><polygon class="cls-57" points="429.52 220.22 389.47 288.54 388.01 287.68 427.56 220.22 429.52 220.22"/><polygon class="cls-58" points="431.48 220.22 390.93 289.39 389.47 288.54 429.52 220.22 431.48 220.22"/><polygon class="cls-59" points="433.44 220.22 392.38 290.25 390.93 289.39 431.48 220.22 433.44 220.22"/><polygon class="cls-60" points="435.4 220.22 393.84 291.1 392.38 290.25 433.44 220.22 435.4 220.22"/><polygon class="cls-61" points="437.36 220.22 395.3 291.95 393.84 291.1 435.4 220.22 437.36 220.22"/><polygon class="cls-62" points="439.31 220.22 396.76 292.81 395.3 291.95 437.36 220.22 439.31 220.22"/><polygon class="cls-63" points="441.27 220.22 398.21 293.66 396.76 292.81 439.31 220.22 441.27 220.22"/><polygon class="cls-64" points="443.23 220.22 399.67 294.52 398.21 293.66 441.27 220.22 443.23 220.22"/><polygon class="cls-65" points="445.19 220.22 401.13 295.37 399.67 294.52 443.23 220.22 445.19 220.22"/><polygon class="cls-66" points="447.15 220.22 402.59 296.23 401.13 295.37 445.19 220.22 447.15 220.22"/><polygon class="cls-67" points="449.11 220.22 404.05 297.08 402.59 296.23 447.15 220.22 449.11 220.22"/><polygon class="cls-68" points="451.07 220.22 405.5 297.94 404.05 297.08 449.11 220.22 451.07 220.22"/><polygon class="cls-69" points="453.03 220.22 406.96 298.79 405.5 297.94 451.07 220.22 453.03 220.22"/><polygon class="cls-70" points="454.74 220.22 454.92 220.33 408.42 299.65 406.96 298.79 453.03 220.22 454.74 220.22"/><rect class="cls-71" x="386.43" y="259.57" width="91.95" height="1.69" transform="translate(-10.95 501.71) rotate(-59.62)"/><rect class="cls-72" x="387.88" y="260.42" width="91.95" height="1.69" transform="translate(-10.97 503.39) rotate(-59.62)"/><rect class="cls-73" x="389.34" y="261.28" width="91.95" height="1.69" transform="translate(-10.99 505.07) rotate(-59.62)"/><rect class="cls-74" x="390.8" y="262.13" width="91.95" height="1.69" transform="translate(-11 506.75) rotate(-59.62)"/><rect class="cls-75" x="392.26" y="262.99" width="91.95" height="1.69" transform="translate(-11.02 508.43) rotate(-59.62)"/><rect class="cls-76" x="393.71" y="263.84" width="91.95" height="1.69" transform="translate(-11.04 510.11) rotate(-59.62)"/><rect class="cls-77" x="395.17" y="264.7" width="91.95" height="1.69" transform="matrix(0.51, -0.86, 0.86, 0.51, -11.05, 511.79)"/><rect class="cls-78" x="396.63" y="265.55" width="91.95" height="1.69" transform="matrix(0.51, -0.86, 0.86, 0.51, -11.07, 513.47)"/><rect class="cls-79" x="398.09" y="266.41" width="91.95" height="1.69" transform="translate(-11.09 515.15) rotate(-59.62)"/><rect class="cls-80" x="399.54" y="267.26" width="91.95" height="1.69" transform="translate(-11.1 516.83) rotate(-59.62)"/><rect class="cls-81" x="401" y="268.12" width="91.95" height="1.69" transform="translate(-11.12 518.51) rotate(-59.62)"/><rect class="cls-82" x="402.46" y="268.97" width="91.95" height="1.69" transform="translate(-11.14 520.19) rotate(-59.62)"/><rect class="cls-83" x="403.92" y="269.83" width="91.95" height="1.69" transform="translate(-11.16 521.87) rotate(-59.62)"/><rect class="cls-84" x="405.38" y="270.68" width="91.95" height="1.69" transform="translate(-11.17 523.55) rotate(-59.62)"/><rect class="cls-85" x="406.83" y="271.53" width="91.95" height="1.69" transform="translate(-11.19 525.23) rotate(-59.62)"/><rect class="cls-86" x="408.29" y="272.39" width="91.95" height="1.69" transform="matrix(0.51, -0.86, 0.86, 0.51, -11.21, 526.91)"/><rect class="cls-87" x="409.75" y="273.24" width="91.95" height="1.69" transform="translate(-11.22 528.59) rotate(-59.62)"/><rect class="cls-88" x="411.21" y="274.1" width="91.95" height="1.69" transform="translate(-11.24 530.27) rotate(-59.62)"/><rect class="cls-89" x="412.66" y="274.95" width="91.95" height="1.69" transform="matrix(0.51, -0.86, 0.86, 0.51, -11.26, 531.95)"/><rect class="cls-90" x="414.12" y="275.81" width="91.95" height="1.69" transform="translate(-11.27 533.63) rotate(-59.62)"/><rect class="cls-91" x="415.58" y="276.66" width="91.95" height="1.69" transform="translate(-11.29 535.31) rotate(-59.62)"/><rect class="cls-92" x="417.04" y="277.52" width="91.95" height="1.69" transform="translate(-11.31 536.99) rotate(-59.62)"/><rect class="cls-92" x="418.49" y="278.37" width="91.95" height="1.69" transform="translate(-11.32 538.67) rotate(-59.62)"/><rect class="cls-93" x="419.95" y="279.23" width="91.95" height="1.69" transform="translate(-11.34 540.35) rotate(-59.62)"/><rect class="cls-94" x="421.41" y="280.08" width="91.95" height="1.69" transform="translate(-11.36 542.03) rotate(-59.62)"/><rect class="cls-94" x="422.87" y="280.94" width="91.95" height="1.69" transform="translate(-11.37 543.71) rotate(-59.62)"/><rect class="cls-95" x="424.32" y="281.79" width="91.95" height="1.69" transform="translate(-11.39 545.39) rotate(-59.62)"/><rect class="cls-96" x="425.78" y="282.65" width="91.95" height="1.69" transform="translate(-11.41 547.07) rotate(-59.62)"/><rect class="cls-96" x="427.24" y="283.5" width="91.95" height="1.69" transform="translate(-11.43 548.75) rotate(-59.62)"/><polygon class="cls-97" points="497.19 245.11 497.55 245.32 497.55 247.85 452.15 325.29 450.69 324.43 497.19 245.11"/><polygon class="cls-98" points="497.55 251.19 453.73 325.93 453.24 325.93 452.15 325.29 497.55 247.85 497.55 251.19"/><polygon class="cls-99" points="497.55 254.53 455.69 325.93 453.73 325.93 497.55 251.19 497.55 254.53"/><polygon class="cls-99" points="497.55 257.87 457.65 325.93 455.69 325.93 497.55 254.53 497.55 257.87"/><polygon class="cls-100" points="497.55 261.21 459.61 325.93 457.65 325.93 497.55 257.87 497.55 261.21"/><polygon class="cls-101" points="497.55 264.55 461.56 325.93 459.61 325.93 497.55 261.21 497.55 264.55"/><polygon class="cls-102" points="497.55 267.89 463.52 325.93 461.56 325.93 497.55 264.55 497.55 267.89"/><polygon class="cls-102" points="497.55 271.24 465.48 325.93 463.52 325.93 497.55 267.89 497.55 271.24"/><polygon class="cls-102" points="497.55 274.58 467.44 325.93 465.48 325.93 497.55 271.24 497.55 274.58"/><polygon class="cls-102" points="467.44 325.93 497.55 274.58 497.55 325.93 467.44 325.93"/></g><g class="cls-103"><rect class="cls-38" x="328.28" y="388.75" width="73.1" height="0.43"/><rect class="cls-38" x="328.28" y="387" width="73.1" height="1.75"/><rect class="cls-39" x="328.28" y="385.26" width="73.1" height="1.75"/><rect class="cls-40" x="328.28" y="383.51" width="73.1" height="1.75"/><rect class="cls-41" x="328.28" y="381.76" width="73.1" height="1.75"/><rect class="cls-42" x="328.28" y="380.01" width="73.1" height="1.75"/><rect class="cls-43" x="328.28" y="378.26" width="73.1" height="1.75"/><rect class="cls-44" x="328.28" y="376.52" width="73.1" height="1.75"/><rect class="cls-45" x="328.28" y="374.77" width="73.1" height="1.75"/><rect class="cls-46" x="328.28" y="373.02" width="73.1" height="1.75"/><rect class="cls-47" x="328.28" y="371.27" width="73.1" height="1.75"/><rect class="cls-48" x="328.28" y="369.52" width="73.1" height="1.75"/><rect class="cls-49" x="328.28" y="367.78" width="73.1" height="1.75"/><rect class="cls-50" x="328.28" y="366.03" width="73.1" height="1.75"/><rect class="cls-51" x="328.28" y="364.28" width="73.1" height="1.75"/><rect class="cls-52" x="328.28" y="362.53" width="73.1" height="1.75"/><rect class="cls-53" x="328.28" y="360.78" width="73.1" height="1.75"/><rect class="cls-54" x="328.28" y="359.04" width="73.1" height="1.75"/><rect class="cls-55" x="328.28" y="357.29" width="73.1" height="1.75"/><rect class="cls-56" x="328.28" y="355.54" width="73.1" height="1.75"/><rect class="cls-57" x="328.28" y="353.79" width="73.1" height="1.75"/><rect class="cls-58" x="328.28" y="352.04" width="73.1" height="1.75"/><rect class="cls-59" x="328.28" y="350.3" width="73.1" height="1.75"/><rect class="cls-60" x="328.28" y="348.55" width="73.1" height="1.75"/><rect class="cls-61" x="328.28" y="346.8" width="73.1" height="1.75"/><rect class="cls-62" x="328.28" y="345.05" width="73.1" height="1.75"/><rect class="cls-63" x="328.28" y="343.3" width="73.1" height="1.75"/><rect class="cls-64" x="328.28" y="341.56" width="73.1" height="1.75"/><rect class="cls-65" x="328.28" y="339.81" width="73.1" height="1.75"/><rect class="cls-66" x="328.28" y="338.06" width="73.1" height="1.75"/><rect class="cls-67" x="328.28" y="336.31" width="73.1" height="1.75"/><rect class="cls-68" x="328.28" y="334.56" width="73.1" height="1.75"/><rect class="cls-69" x="328.28" y="332.82" width="73.1" height="1.75"/><rect class="cls-70" x="328.28" y="331.07" width="73.1" height="1.75"/><rect class="cls-71" x="328.28" y="329.32" width="73.1" height="1.75"/><rect class="cls-72" x="328.28" y="327.57" width="73.1" height="1.75"/><rect class="cls-73" x="328.28" y="325.82" width="73.1" height="1.75"/><rect class="cls-74" x="328.28" y="324.08" width="73.1" height="1.75"/><rect class="cls-75" x="328.28" y="322.33" width="73.1" height="1.75"/><rect class="cls-76" x="328.28" y="320.58" width="73.1" height="1.75"/><rect class="cls-77" x="328.28" y="318.83" width="73.1" height="1.75"/><rect class="cls-78" x="328.28" y="317.08" width="73.1" height="1.75"/><rect class="cls-79" x="328.28" y="315.34" width="73.1" height="1.75"/><rect class="cls-80" x="328.28" y="313.59" width="73.1" height="1.75"/><rect class="cls-81" x="328.28" y="311.84" width="73.1" height="1.75"/><rect class="cls-82" x="328.28" y="310.09" width="73.1" height="1.75"/><rect class="cls-83" x="328.28" y="308.34" width="73.1" height="1.75"/><rect class="cls-84" x="328.28" y="306.6" width="73.1" height="1.75"/><rect class="cls-85" x="328.28" y="304.85" width="73.1" height="1.75"/><rect class="cls-86" x="328.28" y="303.1" width="73.1" height="1.75"/><rect class="cls-87" x="328.28" y="301.35" width="73.1" height="1.75"/><rect class="cls-88" x="328.28" y="299.6" width="73.1" height="1.75"/><rect class="cls-89" x="328.28" y="297.86" width="73.1" height="1.75"/><rect class="cls-90" x="328.28" y="296.11" width="73.1" height="1.75"/><rect class="cls-91" x="328.28" y="294.36" width="73.1" height="1.75"/><rect class="cls-92" x="328.28" y="292.61" width="73.1" height="1.75"/><rect class="cls-92" x="328.28" y="290.86" width="73.1" height="1.75"/><rect class="cls-93" x="328.28" y="289.12" width="73.1" height="1.75"/><rect class="cls-94" x="328.28" y="287.37" width="73.1" height="1.75"/><rect class="cls-94" x="328.28" y="285.62" width="73.1" height="1.75"/><rect class="cls-95" x="328.28" y="283.87" width="73.1" height="1.75"/><rect class="cls-96" x="328.28" y="282.12" width="73.1" height="1.75"/><rect class="cls-96" x="328.28" y="280.38" width="73.1" height="1.75"/><rect class="cls-97" x="328.28" y="278.63" width="73.1" height="1.75"/><rect class="cls-98" x="328.28" y="276.88" width="73.1" height="1.75"/><rect class="cls-99" x="328.28" y="275.13" width="73.1" height="1.75"/><rect class="cls-99" x="328.28" y="273.39" width="73.1" height="1.75"/><rect class="cls-100" x="328.28" y="271.64" width="73.1" height="1.75"/><rect class="cls-101" x="328.28" y="269.89" width="73.1" height="1.75"/><rect class="cls-102" x="328.28" y="268.14" width="73.1" height="1.75"/><rect class="cls-102" x="328.28" y="266.39" width="73.1" height="1.75"/><rect class="cls-102" x="328.28" y="264.65" width="73.1" height="1.75"/><rect class="cls-102" x="328.28" y="263.48" width="73.1" height="1.16"/></g><g class="cls-104"><polygon class="cls-38" points="501.98 327.21 486.31 299.65 490.29 297.39 501.98 297.39 501.98 327.21"/><polygon class="cls-38" points="501.98 331.09 484.64 300.6 486.31 299.65 501.98 327.21 501.98 331.09"/><polygon class="cls-39" points="501.98 334.97 482.97 301.55 484.64 300.6 501.98 331.09 501.98 334.97"/><polygon class="cls-40" points="501.98 338.86 481.31 302.5 482.97 301.55 501.98 334.97 501.98 338.86"/><polygon class="cls-41" points="501.98 342.74 479.64 303.44 481.31 302.5 501.98 338.86 501.98 342.74"/><polygon class="cls-42" points="501.98 346.62 477.97 304.39 479.64 303.44 501.98 342.74 501.98 346.62"/><polygon class="cls-43" points="501.98 350.5 476.3 305.34 477.97 304.39 501.98 346.62 501.98 350.5"/><polygon class="cls-44" points="501.98 354.39 474.63 306.29 476.3 305.34 501.98 350.5 501.98 354.39"/><polygon class="cls-45" points="501.98 358.27 472.97 307.24 474.63 306.29 501.98 354.39 501.98 358.27"/><polygon class="cls-46" points="501.98 362.15 471.3 308.19 472.97 307.24 501.98 358.27 501.98 362.15"/><polygon class="cls-47" points="501.98 366.03 469.63 309.13 471.3 308.19 501.98 362.15 501.98 366.03"/><polygon class="cls-48" points="501.98 369.92 467.96 310.08 469.63 309.13 501.98 366.03 501.98 369.92"/><polygon class="cls-49" points="501.98 373.8 466.29 311.03 467.96 310.08 501.98 369.92 501.98 373.8"/><polygon class="cls-50" points="501.98 377.68 464.63 311.98 466.29 311.03 501.98 373.8 501.98 377.68"/><polygon class="cls-51" points="501.98 381.56 462.96 312.93 464.63 311.98 501.98 377.68 501.98 381.56"/><polygon class="cls-52" points="501.98 385.44 461.29 313.88 462.96 312.93 501.98 381.56 501.98 385.44"/><polygon class="cls-53" points="501.98 389.33 459.62 314.82 461.29 313.88 501.98 385.44 501.98 389.33"/><polygon class="cls-54" points="501.98 391.38 501.19 391.82 457.95 315.77 459.62 314.82 501.98 389.33 501.98 391.38"/><rect class="cls-55" x="477.78" y="310.53" width="1.92" height="87.48" transform="translate(-112.54 282.92) rotate(-29.62)"/><rect class="cls-56" x="476.11" y="311.48" width="1.92" height="87.48" transform="translate(-113.23 282.22) rotate(-29.62)"/><rect class="cls-57" x="474.44" y="312.43" width="1.92" height="87.48" transform="translate(-113.91 281.52) rotate(-29.62)"/><rect class="cls-58" x="472.77" y="313.38" width="1.92" height="87.48" transform="matrix(0.87, -0.49, 0.49, 0.87, -114.6, 280.82)"/><rect class="cls-59" x="471.11" y="314.32" width="1.92" height="87.48" transform="translate(-115.29 280.12) rotate(-29.62)"/><rect class="cls-60" x="469.44" y="315.27" width="1.92" height="87.48" transform="translate(-115.97 279.42) rotate(-29.62)"/><rect class="cls-61" x="467.77" y="316.22" width="1.92" height="87.48" transform="translate(-116.66 278.72) rotate(-29.62)"/><rect class="cls-62" x="466.1" y="317.17" width="1.92" height="87.48" transform="translate(-117.35 278.02) rotate(-29.62)"/><rect class="cls-63" x="464.43" y="318.12" width="1.92" height="87.48" transform="translate(-118.03 277.32) rotate(-29.62)"/><rect class="cls-64" x="462.77" y="319.07" width="1.92" height="87.48" transform="translate(-118.72 276.62) rotate(-29.62)"/><rect class="cls-65" x="461.1" y="320.02" width="1.92" height="87.48" transform="translate(-119.41 275.92) rotate(-29.62)"/><rect class="cls-66" x="459.43" y="320.96" width="1.92" height="87.48" transform="translate(-120.09 275.22) rotate(-29.62)"/><rect class="cls-67" x="457.76" y="321.91" width="1.92" height="87.48" transform="translate(-120.78 274.52) rotate(-29.62)"/><rect class="cls-68" x="456.09" y="322.86" width="1.92" height="87.48" transform="matrix(0.87, -0.49, 0.49, 0.87, -121.47, 273.82)"/><rect class="cls-69" x="454.43" y="323.81" width="1.92" height="87.48" transform="translate(-122.15 273.12) rotate(-29.62)"/><rect class="cls-70" x="452.76" y="324.76" width="1.92" height="87.48" transform="translate(-122.84 272.42) rotate(-29.62)"/><rect class="cls-71" x="451.09" y="325.71" width="1.92" height="87.48" transform="translate(-123.53 271.71) rotate(-29.62)"/><rect class="cls-72" x="449.42" y="326.65" width="1.92" height="87.48" transform="translate(-124.21 271.01) rotate(-29.62)"/><rect class="cls-73" x="447.75" y="327.6" width="1.92" height="87.48" transform="matrix(0.87, -0.49, 0.49, 0.87, -124.9, 270.31)"/><rect class="cls-74" x="446.08" y="328.55" width="1.92" height="87.48" transform="translate(-125.59 269.61) rotate(-29.62)"/><rect class="cls-75" x="444.42" y="329.5" width="1.92" height="87.48" transform="matrix(0.87, -0.49, 0.49, 0.87, -126.27, 268.91)"/><rect class="cls-76" x="442.75" y="330.45" width="1.92" height="87.48" transform="matrix(0.87, -0.49, 0.49, 0.87, -126.96, 268.21)"/><rect class="cls-77" x="441.08" y="331.4" width="1.92" height="87.48" transform="translate(-127.65 267.51) rotate(-29.62)"/><rect class="cls-78" x="439.41" y="332.35" width="1.92" height="87.48" transform="matrix(0.87, -0.49, 0.49, 0.87, -128.33, 266.81)"/><rect class="cls-79" x="437.74" y="333.29" width="1.92" height="87.48" transform="translate(-129.02 266.11) rotate(-29.62)"/><rect class="cls-80" x="436.08" y="334.24" width="1.92" height="87.48" transform="matrix(0.87, -0.49, 0.49, 0.87, -129.71, 265.41)"/><rect class="cls-81" x="434.41" y="335.19" width="1.92" height="87.48" transform="translate(-130.4 264.71) rotate(-29.62)"/><rect class="cls-82" x="432.74" y="336.14" width="1.92" height="87.48" transform="translate(-131.08 264.01) rotate(-29.62)"/><rect class="cls-83" x="431.07" y="337.09" width="1.92" height="87.48" transform="translate(-131.77 263.31) rotate(-29.62)"/><rect class="cls-84" x="429.4" y="338.04" width="1.92" height="87.48" transform="translate(-132.46 262.61) rotate(-29.62)"/><rect class="cls-85" x="427.74" y="338.98" width="1.92" height="87.48" transform="translate(-133.14 261.91) rotate(-29.62)"/><rect class="cls-86" x="426.07" y="339.93" width="1.92" height="87.48" transform="matrix(0.87, -0.49, 0.49, 0.87, -133.83, 261.21)"/><rect class="cls-87" x="424.4" y="340.88" width="1.92" height="87.48" transform="translate(-134.52 260.51) rotate(-29.62)"/><rect class="cls-88" x="422.73" y="341.83" width="1.92" height="87.48" transform="translate(-135.2 259.81) rotate(-29.62)"/><rect class="cls-89" x="421.06" y="342.78" width="1.92" height="87.48" transform="translate(-135.89 259.1) rotate(-29.62)"/><rect class="cls-90" x="419.4" y="343.73" width="1.92" height="87.48" transform="translate(-136.58 258.4) rotate(-29.62)"/><rect class="cls-91" x="417.73" y="344.67" width="1.92" height="87.48" transform="matrix(0.87, -0.49, 0.49, 0.87, -137.26, 257.7)"/><rect class="cls-92" x="416.06" y="345.62" width="1.92" height="87.48" transform="translate(-137.95 257) rotate(-29.62)"/><rect class="cls-92" x="414.39" y="346.57" width="1.92" height="87.48" transform="translate(-138.64 256.3) rotate(-29.62)"/><polygon class="cls-93" points="436.14 428.81 435.51 429.17 434.13 429.17 391.23 353.71 392.9 352.76 436.14 428.81"/><polygon class="cls-94" points="431.93 429.17 389.56 354.66 391.23 353.71 434.13 429.17 431.93 429.17"/><polygon class="cls-94" points="429.72 429.17 387.89 355.61 389.56 354.66 431.93 429.17 429.72 429.17"/><polygon class="cls-95" points="427.51 429.17 386.22 356.56 387.89 355.61 429.72 429.17 427.51 429.17"/><polygon class="cls-96" points="425.3 429.17 384.56 357.5 386.22 356.56 427.51 429.17 425.3 429.17"/><polygon class="cls-96" points="423.1 429.17 382.89 358.45 384.56 357.5 425.3 429.17 423.1 429.17"/><polygon class="cls-97" points="420.89 429.17 381.22 359.4 382.89 358.45 423.1 429.17 420.89 429.17"/><polygon class="cls-98" points="418.68 429.17 379.55 360.35 381.22 359.4 420.89 429.17 418.68 429.17"/><polygon class="cls-99" points="416.47 429.17 377.88 361.3 379.55 360.35 418.68 429.17 416.47 429.17"/><polygon class="cls-99" points="414.27 429.17 376.21 362.25 377.88 361.3 416.47 429.17 414.27 429.17"/><polygon class="cls-100" points="412.06 429.17 374.55 363.19 376.21 362.25 414.27 429.17 412.06 429.17"/><polygon class="cls-101" points="409.85 429.17 372.88 364.14 374.55 363.19 412.06 429.17 409.85 429.17"/><polygon class="cls-102" points="407.64 429.17 371.21 365.09 372.88 364.14 409.85 429.17 407.64 429.17"/><polygon class="cls-102" points="405.44 429.17 369.54 366.04 371.21 365.09 407.64 429.17 405.44 429.17"/><polygon class="cls-102" points="403.23 429.17 368.82 368.66 368.82 366.45 369.54 366.04 405.44 429.17 403.23 429.17"/><polygon class="cls-102" points="368.82 368.66 403.23 429.17 368.82 429.17 368.82 368.66"/></g><path class="cls-105" d="M395.78,358.71c3.1-97.7-19.89-87.88,67.24-39.47a3.91,3.91,0,0,1,0,6.69l-61.63,36.12A3.75,3.75,0,0,1,395.78,358.71Z"/><path class="cls-35" d="M401.87,288.94l56,32.81a1,1,0,0,1,0,1.67l-56,32.81c-3.72,1.46-.25-65.58-1.4-66.46A.94.94,0,0,1,401.87,288.94Z"/><path class="cls-106" d="M159.38,241.2c29.21,53.05,59.22,107,88.43,160.11a5.87,5.87,0,0,0,10.28,0c29.69-53.22,59-107.1,88.76-160.23a1.29,1.29,0,0,0-1.13-1.92H279.05a3.88,3.88,0,0,0-3.37,5.75c7.08,12.93,14.32,25.4,21.35,38.47a3,3,0,0,1-.06,3c-5.55,9.49-11.12,19.9-16.68,29.64a3.89,3.89,0,0,1-6.81-.09c-11.19-20.72-23.37-42.25-34.9-63.14a25.73,25.73,0,0,0-22.33-13.29c-18.55-.14-36.91,0-55.66-.31C159.31,239.18,158.76,240.08,159.38,241.2Z"/><path class="cls-106" d="M492.36,241c29.21,53,59.23,107,88.44,160.11a5.88,5.88,0,0,0,10.28,0c29.69-53.22,59-107.09,88.75-160.22a1.28,1.28,0,0,0-1.12-1.92H612a3.88,3.88,0,0,0-3.37,5.75c7.08,12.92,14.32,25.39,21.35,38.46a3,3,0,0,1,0,3c-5.56,9.49-11.12,19.9-16.68,29.64a3.9,3.9,0,0,1-6.82-.08c-11.19-20.73-23.37-42.26-34.9-63.14a25.74,25.74,0,0,0-22.33-13.3c-18.55-.14-36.91,0-55.66-.31C492.29,238.93,491.75,239.83,492.36,241Z"/><circle class="cls-106" cx="420.03" cy="322.03" r="81.64"/></g></svg>