<svg xmlns="http://www.w3.org/2000/svg" xmlns:xlink="http://www.w3.org/1999/xlink" viewBox="0 0 854 602"><defs><style>.cls-1{fill:none;}.cls-2{fill:#7f7f7f;}.cls-3{fill:#13437e;}.cls-4{clip-path:url(#clip-path);}.cls-5{fill:#fff;}</style><clipPath id="clip-path"><rect class="cls-1" x="144.06" y="223.69" width="512.87" height="157.85"/></clipPath></defs><g id="Layer_4" data-name="Layer 4"><rect class="cls-2" x="-846" y="-908" width="1962" height="1728"/></g><g id="Layer_3" data-name="Layer 3"><rect class="cls-3" x="144.06" y="223.69" width="153.86" height="157.85"/><g class="cls-4"><path class="cls-5" d="M227.28,355.23a7.79,7.79,0,0,0,7.31-5.37L272.48,250H249.41L221,325.24,192.56,250H169.5l39.93,105.23h17.85Z"/><path class="cls-3" d="M633.24,223.69H503.07V381.54H656.93V223.69Z"/><path class="cls-5" d="M603.56,329.57c7.47-4.5,14,7.29,18.77,11.19-31.07,33.9-91.37,8.58-89.75-38.16-1.62-46.7,58.7-72.05,89.75-38.12l-14.52,14.88c-18.93-20.69-55.71-5.24-54.72,23.25-.76,25.64,29.67,42.18,50,27.22Z"/><rect class="cls-3" x="323.57" y="223.69" width="153.86" height="157.85"/><path class="cls-5" d="M354.34,250v21.05h35.9v84.18h20.51V271.05c4.37-.79,30.94,2.14,33.65-2.31,3.91-3.62,1.72-14,2.25-18.74Z"/></g></g></svg>